<svg xmlns="http://www.w3.org/2000/svg" viewBox="0 0 512 512" role="img" aria-labelledby="title desc">
  <title id="title">Blueline app icon</title>
  <desc id="desc">A polished law-enforcement badge mark for the Blueline application.</desc>
  <defs>
    <linearGradient id="bg" x1="76" y1="40" x2="436" y2="472" gradientUnits="userSpaceOnUse">
      <stop offset="0" stop-color="#17345d"/>
      <stop offset="0.48" stop-color="#0f1f3a"/>
      <stop offset="1" stop-color="#07101f"/>
    </linearGradient>
    <linearGradient id="rim" x1="139" y1="76" x2="373" y2="436" gradientUnits="userSpaceOnUse">
      <stop offset="0" stop-color="#ffffff"/>
      <stop offset="0.2" stop-color="#cfd8e3"/>
      <stop offset="0.72" stop-color="#66768d"/>
      <stop offset="1" stop-color="#eef3f8"/>
    </linearGradient>
    <linearGradient id="face" x1="160" y1="101" x2="352" y2="415" gradientUnits="userSpaceOnUse">
      <stop offset="0" stop-color="#f9fbff"/>
      <stop offset="0.46" stop-color="#d9e1ec"/>
      <stop offset="1" stop-color="#95a4b7"/>
    </linearGradient>
    <linearGradient id="blue" x1="171" y1="177" x2="345" y2="334" gradientUnits="userSpaceOnUse">
      <stop offset="0" stop-color="#3a8bff"/>
      <stop offset="1" stop-color="#174fc4"/>
    </linearGradient>
    <linearGradient id="red" x1="182" y1="277" x2="334" y2="370" gradientUnits="userSpaceOnUse">
      <stop offset="0" stop-color="#f04b4b"/>
      <stop offset="1" stop-color="#a80f1e"/>
    </linearGradient>
    <filter id="shadow" x="-20%" y="-20%" width="140%" height="150%">
      <feDropShadow dx="0" dy="18" stdDeviation="18" flood-color="#020617" flood-opacity="0.45"/>
    </filter>
  </defs>
  <rect width="512" height="512" rx="112" fill="url(#bg)"/>
  <path d="M90 105c65-7 119-25 166-61 47 36 101 54 166 61v122c0 106-64 198-166 242C154 425 90 333 90 227V105Z" fill="#07101f" opacity="0.4" filter="url(#shadow)"/>
  <path d="M104 95c60-7 110-24 152-57 42 33 92 50 152 57v126c0 99-59 185-152 228-93-43-152-129-152-228V95Z" fill="url(#rim)"/>
  <path d="M133 122c49-8 89-23 123-48 34 25 74 40 123 48v100c0 82-48 155-123 194-75-39-123-112-123-194V122Z" fill="url(#face)"/>
  <path d="M163 146c36-8 66-21 93-40 27 19 57 32 93 40v73H163v-73Z" fill="url(#blue)"/>
  <path d="M163 248h186c-8 54-41 101-93 132-52-31-85-78-93-132Z" fill="url(#red)"/>
  <path d="M256 124l16 49 52 1-42 30 15 50-41-30-42 30 15-50-42-30 52-1 17-49Z" fill="#ffffff" opacity="0.94"/>
  <path d="M133 220h246v28H133v-28Z" fill="#f8fafc"/>
  <path d="M163 248h186c-1 9-3 18-6 27H169c-3-9-5-18-6-27Z" fill="#cbd5e1" opacity="0.5"/>
</svg>
